# xmcd
#
# Track frame offsets:
#	150
#	26253
#	56247
#	75627
#	104127
#	122563
#	139962
#	168684
#	188732
#	210409
#	231073
#	272030
#	298503
#
# Disc length: 4229 seconds
#
# Revision: 2
# Processed by: cddbd v1.4b41PL2 Copyright (c) Steve Scherf et al.
# Submitted via: audiograbber 1.80
#
DISCID=bd10830d
DTITLE=Seal - Remixed and Live
DYEAR=1900
DGENRE=
TTITLE0=Crazy - Blues In 'E'
TTITLE1=Killer (William Orbit Remix)
TTITLE2=Hey Joe (Live)
TTITLE3=Sparkle (Extended Version)
TTITLE4=Newborn Friend (The Silver Mix)
TTITLE5=The Wind Cries Mary
TTITLE6=Krazy
TTITLE7=Come See What Love Has Done (Live)
TTITLE8=Killer (Live)
TTITLE9=Whirlpool (Live)
TTITLE10=Newborn Friend (Friend For Life)
TTITLE11=Killer (William Orbit Dub)
TTITLE12=The Closing of the Year
EXTD=
EXTT0=
EXTT1=
EXTT2=
EXTT3=
EXTT4=
EXTT5=
EXTT6=
EXTT7=
EXTT8=
EXTT9=
EXTT10=
EXTT11=
EXTT12=
PLAYORDER=
